<svg width="31" height="31" viewBox="0 0 31 31" fill="none" xmlns="http://www.w3.org/2000/svg">
<path d="M0.490478 15.3074C0.490478 7.0231 7.20621 0.307373 15.4905 0.307373C23.7747 0.307373 30.4905 7.0231 30.4905 15.3074C30.4905 23.5916 23.7747 30.3074 15.4905 30.3074C7.20621 30.3074 0.490478 23.5916 0.490478 15.3074Z" fill="white"/>
<path d="M17.933 9.15816C18.5057 8.41885 18.9399 7.37389 18.7828 6.30725C17.8468 6.3723 16.7526 6.97119 16.1142 7.75181C15.5323 8.45912 15.054 9.5113 15.2408 10.5325C16.2641 10.5645 17.3202 9.95118 17.933 9.15816Z" fill="#0B0B0A"/>
<path d="M22.9905 19.1916C22.581 20.1043 22.3839 20.5122 21.8563 21.3207C21.1204 22.4493 20.0827 23.8546 18.7956 23.8649C17.6533 23.8773 17.3587 23.1163 15.8078 23.1256C14.257 23.1339 13.9337 23.8794 12.7892 23.868C11.5032 23.8567 10.5199 22.5887 9.78399 21.4601C7.72506 18.3066 7.50849 14.6049 8.77813 12.6358C9.68135 11.2377 11.106 10.4199 12.4444 10.4199C13.8064 10.4199 14.6634 11.1716 15.7914 11.1716C16.8855 11.1716 17.5517 10.4178 19.1272 10.4178C20.3198 10.4178 21.5833 11.0715 22.4824 12.199C19.5346 13.8243 20.0119 18.0588 22.9905 19.1916Z" fill="#0B0B0A"/>
</svg>
