<svg width="19" height="14" viewBox="0 0 19 14" fill="none" xmlns="http://www.w3.org/2000/svg">
<path fill-rule="evenodd" clip-rule="evenodd" d="M0.15625 7.1057C1.63063 3.36435 5.26972 0.713867 9.53094 0.713867C13.7922 0.713867 17.4312 3.36435 18.9056 7.1057C17.4312 10.8471 13.7922 13.4975 9.53094 13.4975C5.26972 13.4975 1.63063 10.8471 0.15625 7.1057ZM17.0477 7.1057C15.6415 4.23364 12.7609 2.41836 9.53089 2.41836C6.30089 2.41836 3.4203 4.23364 2.0141 7.1057C3.4203 9.97776 6.29236 11.793 9.53089 11.793C12.7694 11.793 15.6415 9.97776 17.0477 7.1057ZM9.53091 4.97509C10.707 4.97509 11.6615 5.92961 11.6615 7.1057C11.6615 8.2818 10.707 9.23631 9.53091 9.23631C8.35481 9.23631 7.4003 8.2818 7.4003 7.1057C7.4003 5.92961 8.35481 4.97509 9.53091 4.97509ZM5.69586 7.1057C5.69586 4.99214 7.41739 3.2706 9.53096 3.2706C11.6445 3.2706 13.3661 4.99214 13.3661 7.1057C13.3661 9.21927 11.6445 10.9408 9.53096 10.9408C7.41739 10.9408 5.69586 9.21927 5.69586 7.1057Z" fill="#212121"/>
</svg>
