<svg width="733" height="923" viewBox="0 0 733 923" fill="none" xmlns="http://www.w3.org/2000/svg">
<path d="M214.095 -18.3812C759.977 -536.233 771.404 -247.378 934.557 -63.8216C1097.71 119.735 1331.74 220.874 804.924 646.337C776.018 672.029 899.551 878.978 865.136 893.291C839.052 904.139 655.939 724.739 627.895 729.205C595.671 734.338 527.538 925.623 494.2 922.521C459.724 919.312 483.409 718.684 449.455 706.891C416.363 695.397 389.407 623.934 358.444 604.498C319.235 579.885 253.529 607.683 220.668 570.712C198.105 545.328 102.521 552.987 86.0917 525.07C69.5787 497.01 134.754 427.364 124.45 397.829C131.661 349.353 175.97 322.573 171.893 292.56C167.143 257.59 95.0813 244.268 98.8453 210.377C269.169 164.032 -14.9287 59.2121 0.943464 23.8464C20.4945 -19.7167 177.04 14.5548 214.095 -18.3812Z" fill="white"/>
<path d="M427 282H431V280H427V282Z" fill="#DADADA"/>
<path d="M420 270V272H438V270H420Z" fill="#DADADA"/>
<path d="M423 277H435V275H423V277Z" fill="#DADADA"/>
</svg>
