<svg width="31" height="31" viewBox="0 0 31 31" fill="none" xmlns="http://www.w3.org/2000/svg">
<path d="M15.4905 30.3074C23.7747 30.3074 30.4905 23.5916 30.4905 15.3074C30.4905 7.0231 23.7747 0.307373 15.4905 0.307373C7.20621 0.307373 0.490478 7.0231 0.490478 15.3074C0.490478 23.5916 7.20621 30.3074 15.4905 30.3074Z" fill="white"/>
<path d="M21.5185 18.3356C23.6663 17.145 25.3066 16.2355 25.4558 16.1526C25.9009 15.9059 26.3672 15.2762 25.4558 14.7728C25.1629 14.6107 23.5667 13.7291 21.516 12.5959L18.6956 15.4747L21.5185 18.3356Z" fill="#FFE300"/>
<path d="M18.695 15.4744L9.67407 24.6814C9.87779 24.7076 10.1228 24.6529 10.4047 24.4967C10.9881 24.1732 17.2542 20.699 21.5182 18.335L18.695 15.4744Z" fill="#FF4E54"/>
<path d="M18.6976 15.4744L21.518 12.5956C21.518 12.5956 11.0348 6.80241 10.4072 6.45561C10.166 6.32227 9.90297 6.27573 9.67017 6.32824L18.6976 15.4744Z" fill="#00F085"/>
<path d="M18.6965 15.4748L9.66893 6.32886C9.29606 6.4131 8.99048 6.73998 8.99048 7.39702L8.99048 23.5845C8.99048 24.2033 9.23087 24.6385 9.6754 24.6819L18.6965 15.4748Z" fill="#00E0FF"/>
</svg>
