<svg width="16" height="16" viewBox="0 0 16 16" fill="none" xmlns="http://www.w3.org/2000/svg">
<path d="M7.6759 3.46925C9.06285 3.46925 9.99843 4.06834 10.5319 4.56896L12.6164 2.53367C11.3361 1.34369 9.67016 0.613281 7.6759 0.613281C4.78711 0.613281 2.29224 2.27105 1.07764 4.68385L3.46582 6.53859C4.06491 4.75772 5.72268 3.46925 7.6759 3.46925Z" fill="#EA4335"/>
<path d="M14.7669 8.16362C14.7669 7.55631 14.7177 7.11315 14.611 6.65356H7.67627V9.39464H11.7468C11.6648 10.0758 11.2216 11.1017 10.2368 11.791L12.5675 13.5965C13.9627 12.3081 14.7669 10.4123 14.7669 8.16362Z" fill="#4285F4"/>
<path d="M3.47428 9.4602C3.31835 9.00061 3.22807 8.50821 3.22807 7.99939C3.22807 7.49056 3.31835 6.99816 3.46607 6.53857L1.07789 4.68384C0.577277 5.68507 0.290039 6.8094 0.290039 7.99939C0.290039 9.18937 0.577277 10.3137 1.07789 11.3149L3.47428 9.4602Z" fill="#FBBC05"/>
<path d="M7.676 15.3855C9.67025 15.3855 11.3444 14.729 12.5673 13.5964L10.2365 11.7909C9.6128 12.2259 8.77571 12.5295 7.676 12.5295C5.72278 12.5295 4.06501 11.2411 3.47412 9.46021L1.08594 11.3149C2.30054 13.7277 4.7872 15.3855 7.676 15.3855Z" fill="#212121"/>
</svg>
