<svg width="190" height="211" viewBox="0 0 190 211" fill="none" xmlns="http://www.w3.org/2000/svg">
<path d="M117.108 67.5793L0.353516 102.655V181.215L0.361342 181.213C0.367522 182.829 1.55601 184.521 3.82504 185.831L12.2293 190.683L20.6335 195.535C24.3765 197.696 29.9227 198.172 33.704 196.657L43.0182 192.925C68.8732 182.565 91.1722 169.691 109.116 154.763L115.581 149.386C116.609 148.53 117.101 147.518 117.101 146.473L117.109 146.471V67.5793H117.108Z" fill="url(#paint0_linear_378_82)"/>
<path d="M74.4442 56.0592L83.7588 52.3269C87.5401 50.8117 93.0863 51.2879 96.8289 53.449L105.233 58.301L113.637 63.153C117.38 65.3141 118.205 68.5162 115.581 70.6991L109.117 76.0768C91.1728 91.0043 68.8737 103.879 43.0183 114.238L33.7037 117.971C29.9228 119.486 24.3762 119.01 20.6337 116.849L12.2294 111.997L3.82516 107.145C0.0821545 104.983 -0.742575 101.781 1.88156 99.5984L8.34593 94.2208C26.2902 79.2933 48.5892 66.4189 74.4442 56.0592Z" fill="url(#paint1_linear_378_82)"/>
<path d="M1.88156 99.5983C-0.742575 101.781 0.0821545 104.983 3.82516 107.144L7.75478 109.413H26.4537V97.6794H4.18809L1.88156 99.5983Z" fill="url(#paint2_linear_378_82)"/>
<path d="M42.457 71.1528H92.2905V59.4192H66.4096C58.0103 63.0617 50.011 66.9752 42.457 71.1528Z" fill="url(#paint3_linear_378_82)"/>
<path d="M100.783 31.0911C100.783 19.8686 94.9812 9.81905 85.262 4.20825C75.5436 -1.40296 63.9397 -1.40254 54.2209 4.20825C31.0647 17.5774 16.6797 42.4927 16.6797 69.2313V103.568L16.6966 103.57C16.7073 104.988 17.7401 106.48 19.7619 107.648C23.4777 109.793 29.0988 110.026 32.317 108.168C33.7901 107.317 34.4954 106.175 34.4806 104.982L34.4979 104.983V69.2309C34.4979 48.838 45.4694 29.835 63.1298 19.6384C67.2708 17.2482 72.213 17.2478 76.3539 19.6384C80.4936 22.0285 82.9654 26.3099 82.9654 31.0906V65.361L82.9851 65.3626C83.0255 66.7616 84.0558 68.2274 86.048 69.3771C89.7638 71.5226 95.3849 71.7553 98.6031 69.8974C99.9984 69.0921 100.71 68.0255 100.769 66.9013L100.784 66.9025V31.0911H100.783Z" fill="url(#paint4_linear_378_82)"/>
<path d="M90.0381 65.405V34.2437C90.0381 20.8655 75.5555 12.5041 63.9697 19.193V19.1934C67.8153 17.3161 72.2306 17.4018 76.0226 19.4546C80.3807 21.8138 82.9636 26.5072 82.9636 31.463V65.3614L82.9834 65.363C83.0238 66.762 84.0541 68.2277 86.0463 69.3775C89.7621 71.5229 95.3832 71.7557 98.6014 69.8978C99.5184 69.3684 100.135 68.7249 100.47 68.0275C93.5817 68.9198 90.0381 65.405 90.0381 65.405Z" fill="url(#paint5_linear_378_82)"/>
<path d="M89.878 125.258C89.878 117.878 85.391 114.486 79.856 117.682C74.321 120.877 69.834 129.451 69.834 136.831C69.834 141.925 71.9724 145.118 75.1169 145.557V156.721C75.1169 160.21 77.2388 161.815 79.856 160.304C82.4735 158.792 84.5951 154.738 84.5951 151.249V140.085C87.7395 136.014 89.878 130.352 89.878 125.258Z" fill="url(#paint6_linear_378_82)"/>
<path d="M99.3076 149.887V167.723L99.32 167.724C99.3278 168.781 100.098 169.894 101.606 170.765C104.377 172.364 108.569 172.538 110.968 171.153C112.067 170.518 112.593 169.667 112.582 168.776L112.595 168.778V149.887H99.3076Z" fill="url(#paint7_linear_378_82)"/>
<path d="M99.3076 167.724L112.595 168.777V149.887H99.3076V167.724Z" fill="url(#paint8_linear_378_82)"/>
<path d="M189.607 184.616C189.607 168.868 180.032 150.573 168.221 143.753C162.87 140.664 157.982 140.468 154.231 142.634C154.23 142.631 154.229 142.624 154.229 142.624L141.199 150.187C141.199 150.187 134.188 183.955 146.142 194.179C158.096 204.404 168.912 209.627 168.912 209.627L182.48 201.754C182.48 201.754 182.464 201.761 182.442 201.77C186.837 199.085 189.607 193.084 189.607 184.616ZM161.243 174.152C161.476 172.345 161.583 170.28 161.583 168.256C161.583 166.825 161.512 165.282 161.381 163.751L172.185 190.621C171.392 190.508 168.697 189.45 168.195 189.159C163.863 186.646 160.558 179.459 161.243 174.152Z" fill="url(#paint9_linear_378_82)"/>
<path d="M189.61 184.616C189.61 184.328 189.6 184.037 189.594 183.747L173.022 193.314L168.915 209.627L182.483 201.754C182.483 201.754 182.467 201.761 182.444 201.77C186.84 199.085 189.61 193.083 189.61 184.616Z" fill="url(#paint10_linear_378_82)"/>
<path d="M170.978 190.367C170.565 190.252 170.146 190.107 169.719 189.925C169.206 189.706 168.697 189.45 168.195 189.158C163.863 186.646 160.558 179.459 161.243 174.152C161.476 172.345 161.583 170.28 161.583 168.256C161.583 166.825 161.512 165.282 161.381 163.751C161.381 163.751 146.293 150.087 144.038 163.751C142.315 174.191 143.729 189.031 149.079 196.611C151.196 198.311 153.249 199.847 155.182 201.217C165.466 203.801 169.75 195.599 169.75 195.599C169.75 195.599 170.486 193.594 170.978 190.367Z" fill="url(#paint11_linear_378_82)"/>
<path d="M170.978 190.367C170.565 190.252 170.146 190.107 169.719 189.925C169.206 189.706 168.697 189.45 168.195 189.158C163.863 186.646 160.558 179.459 161.243 174.152C161.476 172.345 161.583 170.28 161.583 168.256C161.583 166.825 161.512 165.282 161.381 163.751C161.381 163.751 146.293 150.087 144.038 163.751C142.315 174.191 143.729 189.031 149.079 196.611C151.196 198.311 153.249 199.847 155.182 201.217C165.466 203.801 169.75 195.599 169.75 195.599C169.75 195.599 170.486 193.594 170.978 190.367Z" fill="url(#paint12_linear_378_82)"/>
<path d="M83.5762 140.819V158.654L83.5885 158.655C83.5964 159.713 84.3667 160.826 85.8745 161.696C88.6457 163.296 92.8373 163.47 95.2373 162.084C96.336 161.45 96.8621 160.599 96.8505 159.708L96.8633 159.71V140.819H83.5762V140.819Z" fill="url(#paint13_linear_378_82)"/>
<path d="M83.5752 158.655L96.8627 159.708V140.819H83.5752V158.655Z" fill="url(#paint14_linear_378_82)"/>
<path d="M88.989 122.55L88.9857 122.557C87.8421 121.896 86.3541 121.951 84.7224 122.893C81.1207 124.972 78.2012 130.551 78.2012 135.353C78.2012 138.003 79.0926 139.856 80.4945 140.642L80.492 140.647L141.558 175.835L150.054 157.739L88.989 122.55Z" fill="url(#paint15_linear_378_82)"/>
<path d="M155.18 151.323C143.368 144.504 133.793 151.742 133.793 167.491C133.793 183.24 143.368 201.534 155.18 208.354C166.991 215.173 176.566 207.934 176.566 192.186C176.566 176.437 166.991 158.143 155.18 151.323ZM167.913 189.13C167.267 196.586 162.548 200.175 156.677 197.675C156.164 197.456 155.655 197.199 155.153 196.909C150.821 194.396 147.516 187.209 148.201 181.902C148.435 180.095 148.541 178.03 148.541 176.006C148.541 174.05 148.412 171.885 148.171 169.827C147.453 163.68 150.719 160.224 155.077 162.695C155.111 162.714 155.145 162.733 155.18 162.753C162.736 167.116 168.764 179.316 167.913 189.13Z" fill="url(#paint16_linear_378_82)"/>
<defs>
<linearGradient id="paint0_linear_378_82" x1="22.9396" y1="132.56" x2="34.6988" y2="132.56" gradientUnits="userSpaceOnUse">
<stop stop-color="#FFA538"/>
<stop offset="1" stop-color="#F7E041"/>
</linearGradient>
<linearGradient id="paint1_linear_378_82" x1="20.8129" y1="63.2568" x2="91.7066" y2="104.187" gradientUnits="userSpaceOnUse">
<stop stop-color="#FFA538"/>
<stop offset="1" stop-color="#FCF3B3"/>
</linearGradient>
<linearGradient id="paint2_linear_378_82" x1="28.0179" y1="103.546" x2="-7.29633" y2="103.546" gradientUnits="userSpaceOnUse">
<stop offset="0.0319" stop-color="#8B451C"/>
<stop offset="1" stop-color="#8B451C" stop-opacity="0"/>
</linearGradient>
<linearGradient id="paint3_linear_378_82" x1="98.4674" y1="65.2862" x2="53.2621" y2="65.2862" gradientUnits="userSpaceOnUse">
<stop offset="0.0319" stop-color="#8B451C"/>
<stop offset="1" stop-color="#8B451C" stop-opacity="0"/>
</linearGradient>
<linearGradient id="paint4_linear_378_82" x1="58.7314" y1="95.1073" x2="58.7314" y2="-14.3152" gradientUnits="userSpaceOnUse">
<stop stop-color="#DFDAEF"/>
<stop offset="1" stop-color="white"/>
</linearGradient>
<linearGradient id="paint5_linear_378_82" x1="82.2192" y1="-2.13505" x2="82.2192" y2="52.1789" gradientUnits="userSpaceOnUse">
<stop offset="0.0319" stop-color="#7662BD"/>
<stop offset="1" stop-color="#7662BD" stop-opacity="0"/>
</linearGradient>
<linearGradient id="paint6_linear_378_82" x1="79.8556" y1="108.847" x2="79.8556" y2="155.343" gradientUnits="userSpaceOnUse">
<stop stop-color="#322A50"/>
<stop offset="1" stop-color="#43386B"/>
</linearGradient>
<linearGradient id="paint7_linear_378_82" x1="102.352" y1="160.988" x2="109.703" y2="160.988" gradientUnits="userSpaceOnUse">
<stop stop-color="#FFA538"/>
<stop offset="1" stop-color="#F7E041"/>
</linearGradient>
<linearGradient id="paint8_linear_378_82" x1="110.679" y1="151.143" x2="104.368" y2="162.074" gradientUnits="userSpaceOnUse">
<stop offset="0.0319" stop-color="#8B451C"/>
<stop offset="1" stop-color="#8B451C" stop-opacity="0"/>
</linearGradient>
<linearGradient id="paint9_linear_378_82" x1="176.106" y1="197.919" x2="149.6" y2="152.009" gradientUnits="userSpaceOnUse">
<stop stop-color="#E37A34"/>
<stop offset="0.1732" stop-color="#FFA538"/>
<stop offset="0.6592" stop-color="#F7E041"/>
<stop offset="1" stop-color="#FCF3B3"/>
</linearGradient>
<linearGradient id="paint10_linear_378_82" x1="183.953" y1="204.824" x2="178.696" y2="195.719" gradientUnits="userSpaceOnUse">
<stop offset="0.0319" stop-color="#8B451C"/>
<stop offset="1" stop-color="#8B451C" stop-opacity="0"/>
</linearGradient>
<linearGradient id="paint11_linear_378_82" x1="150.701" y1="172.413" x2="166.427" y2="199.651" gradientUnits="userSpaceOnUse">
<stop stop-color="#E37A34"/>
<stop offset="1" stop-color="#FFA538"/>
</linearGradient>
<linearGradient id="paint12_linear_378_82" x1="144.798" y1="162.188" x2="154.136" y2="178.361" gradientUnits="userSpaceOnUse">
<stop offset="0.0319" stop-color="#8B451C"/>
<stop offset="1" stop-color="#8B451C" stop-opacity="0"/>
</linearGradient>
<linearGradient id="paint13_linear_378_82" x1="86.9019" y1="151.919" x2="93.7893" y2="151.919" gradientUnits="userSpaceOnUse">
<stop stop-color="#FFA538"/>
<stop offset="1" stop-color="#F7E041"/>
</linearGradient>
<linearGradient id="paint14_linear_378_82" x1="94.9471" y1="142.074" x2="88.636" y2="153.005" gradientUnits="userSpaceOnUse">
<stop offset="0.0319" stop-color="#8B451C"/>
<stop offset="1" stop-color="#8B451C" stop-opacity="0"/>
</linearGradient>
<linearGradient id="paint15_linear_378_82" x1="110.536" y1="152.469" x2="118.879" y2="138.018" gradientUnits="userSpaceOnUse">
<stop stop-color="#FFA538"/>
<stop offset="0.3408" stop-color="#F7E041"/>
<stop offset="0.654" stop-color="#FCF3B3"/>
<stop offset="1" stop-color="#F7E041"/>
</linearGradient>
<linearGradient id="paint16_linear_378_82" x1="155.18" y1="235.684" x2="155.18" y2="152.264" gradientUnits="userSpaceOnUse">
<stop stop-color="#FFA538"/>
<stop offset="1" stop-color="#F7E041"/>
</linearGradient>
</defs>
</svg>
