<svg width="190" height="190" viewBox="0 0 190 190" fill="none" xmlns="http://www.w3.org/2000/svg">
<g clip-path="url(#clip0_977_407)">
<path d="M186.242 56.9935C177.946 35.8828 152.389 23.2229 130.743 31.6007C106.035 41.1634 114.227 80.4637 91.7842 88.4107C79.661 92.7035 61.7394 76.6678 49.4911 74.209C26.9208 69.6779 6.48835 85.6034 1.45706 107.657C-3.67591 130.157 4.55681 160.208 29.2768 166.314C58.7231 173.589 74.0616 147.118 98.7638 139.517C124.113 131.717 152.299 150.139 173.285 127.726C188.789 111.167 194.457 77.898 186.242 56.9935Z" fill="url(#paint0_linear_977_407)"/>
<path opacity="0.1" d="M176.955 66.2746C176.955 51.6172 165.073 39.7351 150.415 39.7351C139.06 39.7351 129.375 46.8694 125.586 56.8982H29.6182C25.5191 56.8982 22.1963 60.221 22.1963 64.3201V146.484C22.1963 150.583 25.5191 153.906 29.6182 153.906H160.382C164.481 153.906 167.804 150.583 167.804 146.484V86.3148C173.407 81.4486 176.955 74.2784 176.955 66.2746Z" fill="#2626BC"/>
<path d="M160.383 144.628H29.6182C25.5191 144.628 22.1963 141.306 22.1963 137.207V55.0427C22.1963 50.9436 25.5191 47.6208 29.6182 47.6208H160.382C164.481 47.6208 167.804 50.9436 167.804 55.0427V137.207C167.805 141.306 164.481 144.628 160.383 144.628Z" fill="#9FB0FE"/>
<path d="M167.805 55.0444V86.4019C163.148 90.4431 157.069 92.8923 150.416 92.8923C135.757 92.8923 123.875 81.0099 123.875 66.3554C123.875 59.0448 126.833 52.4208 131.616 47.6226H160.383C164.48 47.6226 167.805 50.9438 167.805 55.0444Z" fill="#8399FE"/>
<path d="M167.805 55.0442V64.3995L101.784 115.117C99.8467 116.605 97.4383 117.421 95.0002 117.421C92.5621 117.421 90.1537 116.605 88.2166 115.117L22.1953 64.3995V55.0442C22.1953 50.9436 25.5203 47.6223 29.6172 47.6223H160.383C164.48 47.6223 167.805 50.9436 167.805 55.0442Z" fill="#8399FE"/>
<path d="M97.2611 83.0174L167.805 137.206C167.805 141.305 164.482 144.628 160.383 144.628H29.6182C25.5191 144.628 22.1963 141.305 22.1963 137.206L92.7397 83.0174C94.0731 81.9932 95.9278 81.9932 97.2611 83.0174Z" fill="#8399FE"/>
<path d="M120.416 100.804L101.784 115.117C99.8467 116.605 97.4383 117.422 95.0002 117.422C92.5621 117.422 90.1537 116.605 88.2166 115.117L69.584 100.804L92.7402 83.0177C94.0725 81.9935 95.9279 81.9935 97.2602 83.0177L120.416 100.804Z" fill="#6583FE"/>
<path d="M92.7397 109.232L22.1963 55.0427C22.1963 50.9436 25.5191 47.6208 29.6182 47.6208H160.382C164.481 47.6208 167.804 50.9436 167.804 55.0427L97.2611 109.232C95.9278 110.256 94.0731 110.256 92.7397 109.232Z" fill="#B7C5FF"/>
<path d="M137.657 134.753H125.732C124.708 134.753 123.877 133.922 123.877 132.898V124.677C123.877 123.652 124.708 122.821 125.732 122.821H137.657C138.682 122.821 139.513 123.652 139.513 124.677V132.898C139.513 133.923 138.682 134.753 137.657 134.753Z" fill="#02FFB3"/>
<path d="M115.734 127.19H105.405C104.38 127.19 103.55 126.359 103.55 125.334C103.55 124.31 104.38 123.479 105.405 123.479H115.734C116.759 123.479 117.589 124.31 117.589 125.334C117.589 126.359 116.759 127.19 115.734 127.19Z" fill="white"/>
<path d="M115.734 134.753H79.4287C78.4037 134.753 77.5732 133.923 77.5732 132.898C77.5732 131.873 78.4037 131.042 79.4287 131.042H115.734C116.759 131.042 117.589 131.873 117.589 132.898C117.589 133.923 116.759 134.753 115.734 134.753Z" fill="white"/>
<path d="M150.415 83.5368C165.073 83.5368 176.955 71.6546 176.955 56.9973C176.955 42.3399 165.073 30.4578 150.415 30.4578C135.758 30.4578 123.876 42.3399 123.876 56.9973C123.876 71.6546 135.758 83.5368 150.415 83.5368Z" fill="#FF5BA8"/>
<path d="M150.415 85.3923C166.072 85.3923 178.81 72.6545 178.81 56.9973C178.81 41.3401 166.073 28.6023 150.415 28.6023C134.758 28.6023 122.021 41.3401 122.021 56.9973C122.021 66.1054 126.336 74.2197 133.025 79.4191L96.1304 107.76C95.4658 108.272 94.5358 108.272 93.8697 107.76L24.1182 54.1796C24.5342 51.5188 26.8424 49.4763 29.6178 49.4763H114.734C115.759 49.4763 116.59 48.6454 116.59 47.6209C116.59 46.5963 115.759 45.7654 114.734 45.7654H29.6182C24.5026 45.7654 20.3408 49.9272 20.3408 55.0427V137.207C20.3408 142.322 24.5026 146.484 29.6182 146.484H160.382C165.498 146.484 169.66 142.322 169.66 137.207V88.1703C169.66 87.1457 168.829 86.3148 167.804 86.3148C166.779 86.3148 165.949 87.1457 165.949 88.1703V133.441L117.37 96.1247L136.273 81.6038C140.44 84.0085 145.268 85.3923 150.415 85.3923ZM72.6305 96.1247L24.0518 133.441V58.8078L72.6305 96.1247ZM165.875 138.065C165.46 140.727 163.159 142.773 160.382 142.773H29.6182C26.8413 142.773 24.5397 140.727 24.1249 138.065L75.6768 98.4644L91.6094 110.703C92.6076 111.47 93.804 111.853 95.0004 111.853C96.1968 111.853 97.3929 111.47 98.3915 110.703L114.324 98.464L165.875 138.065ZM125.731 56.9973C125.731 43.3867 136.805 32.3132 150.415 32.3132C164.026 32.3132 175.1 43.3863 175.1 56.9973C175.1 70.6083 164.026 81.6813 150.415 81.6813C136.805 81.6813 125.731 70.6079 125.731 56.9973Z" fill="#2626BC"/>
<path d="M138.831 47.9466L142.618 56.9972L138.831 66.0478C138.188 67.5849 139.739 69.1249 141.271 68.4703L164.138 58.7035C165.64 58.0619 165.64 55.9325 164.138 55.2909L141.271 45.5241C139.739 44.8695 138.188 46.4095 138.831 47.9466Z" fill="white"/>
<path d="M151.259 58.7296L139.857 63.6021L142.619 56.9966L139.854 50.3911L151.259 55.2636C152.681 55.8722 152.681 58.1247 151.259 58.7296Z" fill="#FFDBED"/>
<path d="M122.768 30.3075C121.39 30.3075 120.012 29.7831 118.963 28.734C116.865 26.6359 116.865 23.2222 118.963 21.1244C121.06 19.0269 124.475 19.0262 126.573 21.1244C128.671 23.2225 128.671 26.6362 126.573 28.734C125.524 29.7831 124.146 30.3075 122.768 30.3075ZM122.768 23.26C122.341 23.26 121.913 23.4226 121.587 23.7484C120.936 24.3993 120.936 25.4587 121.587 26.11C122.239 26.7609 123.297 26.7613 123.949 26.11C124.599 25.4591 124.599 24.3996 123.949 23.7484C123.623 23.4229 123.195 23.26 122.768 23.26Z" fill="#00ECA2"/>
<path d="M81.0982 170.449C79.7203 170.449 78.3421 169.924 77.2933 168.875C75.1952 166.777 75.1952 163.364 77.2933 161.266C79.3908 159.168 82.8056 159.168 84.903 161.266C87.0012 163.364 87.0012 166.778 84.903 168.875C83.8543 169.924 82.476 170.449 81.0982 170.449ZM81.0982 163.401C80.6707 163.401 80.2428 163.564 79.917 163.89C79.2661 164.541 79.2661 165.6 79.917 166.251C80.5686 166.903 81.6274 166.903 82.279 166.251C82.9299 165.6 82.9299 164.541 82.279 163.89C81.9535 163.564 81.5257 163.401 81.0982 163.401Z" fill="#00ECA2"/>
<path d="M109.392 35.0856C108.917 35.0856 108.442 34.9045 108.08 34.5423L105.866 32.3291L103.653 34.5423C102.929 35.2667 101.753 35.2667 101.029 34.5423C100.304 33.8175 100.304 32.6427 101.029 31.9183L104.554 28.3929C105.278 27.6685 106.454 27.6685 107.178 28.3929L110.703 31.9183C111.428 32.643 111.428 33.8179 110.703 34.5423C110.342 34.9041 109.867 35.0856 109.392 35.0856Z" fill="#FF7EB8"/>
<path d="M163.186 163.401C162.712 163.401 162.236 163.22 161.875 162.857L159.661 160.644L157.447 162.857C156.723 163.582 155.548 163.582 154.824 162.857C154.099 162.133 154.099 160.958 154.824 160.233L158.349 156.708C159.073 155.984 160.249 155.984 160.973 156.708L164.498 160.233C165.223 160.958 165.223 162.133 164.498 162.857C164.136 163.219 163.661 163.401 163.186 163.401Z" fill="#FF7EB8"/>
<path d="M66.3827 165.163C65.9081 165.163 65.4327 164.982 65.0709 164.62L62.8573 162.407L60.6438 164.62C59.9198 165.345 58.7441 165.345 58.0201 164.62C57.2954 163.895 57.2954 162.721 58.0201 161.996L61.5455 158.471C62.2695 157.746 63.4451 157.746 64.1691 158.471L67.6945 161.996C68.4193 162.721 68.4193 163.896 67.6945 164.62C67.3323 164.982 66.8573 165.163 66.3827 165.163Z" fill="#6583FE"/>
</g>
<defs>
<linearGradient id="paint0_linear_977_407" x1="160.437" y1="186.528" x2="73.6006" y2="71.4892" gradientUnits="userSpaceOnUse">
<stop stop-color="#C6D1FF"/>
<stop offset="0.5834" stop-color="#FBBC05"/>
<stop offset="0.997" stop-color="#F7E041"/>
</linearGradient>
<clipPath id="clip0_977_407">
<rect width="190" height="190" fill="white"/>
</clipPath>
</defs>
</svg>
