<svg width="76" height="74" viewBox="0 0 76 74" fill="none" xmlns="http://www.w3.org/2000/svg">
<path d="M45.097 54.3367C44.4847 54.583 43.7859 54.4622 43.2919 54.0247C35.0713 46.746 20.3602 56.2015 20.2128 56.2979C19.4072 56.8235 18.3279 56.5976 17.8017 55.7927C17.2755 54.9878 17.5003 53.9091 18.3048 53.3822C18.4752 53.2706 22.5373 50.6313 27.8454 49.0144C33.9173 47.1646 39.176 47.4195 43.2434 49.7284C44.5789 45.2461 48.1964 41.421 53.8579 38.5508C58.8067 36.0415 63.5653 35.1332 63.7655 35.0956C64.7114 34.9185 65.6215 35.5417 65.7986 36.4874C65.9756 37.4333 65.3524 38.343 64.4068 38.5205C64.2347 38.5529 47.0739 41.9178 46.1833 52.8616C46.1298 53.5193 45.7092 54.0904 45.097 54.3367V54.3367Z" fill="#E2DFF4"/>
<path d="M46.1834 52.8617C47.0739 41.918 64.2348 38.5531 64.4069 38.5206C65.3524 38.3431 65.9757 37.4334 65.7987 36.4875C65.6216 35.5418 64.7115 34.9186 63.7656 35.0957C63.5654 35.1332 58.8068 36.0416 53.858 38.551C48.1965 41.421 44.579 45.2462 43.2434 49.7285L45.0971 54.3369C45.7093 54.0905 46.1299 53.5194 46.1834 52.8617V52.8617Z" fill="#BEBCDD"/>
<path d="M69.826 44.059C69.536 43.6586 69.0895 43.4013 68.5976 43.3487C67.854 43.271 50.8468 41.6066 43.6762 50.8043C32.1342 49.1349 21.0163 62.1114 20.5337 62.6825C20.2153 63.061 20.0713 63.5558 20.1393 64.0455L21.0233 70.4416L23.2303 70.9692L39.2944 59.0948C39.2944 59.0948 50.3815 66.7388 52.3169 53.8565L74.2978 50.9774L73.6953 49.2757L69.826 44.059Z" fill="#F9F9F9"/>
<path d="M73.6174 49.286L69.8262 44.0588C69.536 43.6586 69.0893 43.4006 68.5976 43.349C67.8537 43.2709 50.8473 41.6069 43.6761 50.8042L48.3046 62.3107C51.5169 61.0185 53.5819 57.8823 53.9239 54.5388L73.9424 52.1905L73.6963 49.2757L73.6174 49.286Z" fill="#E2DFF4"/>
<path d="M74.5787 52.6188C74.4468 52.6719 74.3065 52.7094 74.1592 52.7292L54.2708 55.4008C53.9286 58.7444 51.7769 61.6651 48.5647 62.9572C45.3525 64.2493 41.7776 63.6321 39.2155 61.4568L23.0168 73.3013C22.2395 73.8693 21.1499 73.7 20.5821 72.9232C20.0142 72.1465 20.1834 71.0565 20.9602 70.4885L38.3684 57.7597C39.115 57.2136 40.1566 57.3461 40.743 58.0602C42.3264 59.9879 44.9471 60.6567 47.2644 59.7246C49.5817 58.7924 51.0092 56.4952 50.8168 54.008C50.7454 53.0868 51.4054 52.2702 52.3218 52.1469L73.6953 49.2757C74.649 49.1477 75.5258 49.8169 75.654 50.7705C75.7623 51.5767 75.3004 52.3284 74.5787 52.6188V52.6188Z" fill="#BC8173"/>
<path d="M54.2708 55.4008L74.1592 52.7292C74.3064 52.7093 74.4468 52.6718 74.5787 52.6188C75.3003 52.3284 75.7622 51.5767 75.6539 50.7705C75.5257 49.8169 74.6489 49.1476 73.6952 49.2758L52.3217 52.1469C51.4053 52.2702 50.7453 53.0868 50.8166 54.008C51.0091 56.4952 49.5816 58.7925 47.2642 59.7246L48.5646 62.9573C51.7769 61.6651 53.9287 58.7444 54.2708 55.4008Z" fill="#865240"/>
<path d="M52.5876 1.99766L51.1867 2.56115L50.6232 1.16031C50.2642 0.26765 49.2493 -0.164938 48.3567 0.194135C47.464 0.553208 47.0314 1.56801 47.3905 2.46067L47.954 3.86151L46.5532 4.425C45.6605 4.78407 45.2279 5.79887 45.587 6.69153C45.9461 7.58419 46.9609 8.01677 47.8535 7.6577L49.2544 7.09421L49.8179 8.49505C50.1769 9.38771 51.1917 9.8203 52.0844 9.46123C52.977 9.10215 53.4096 8.08735 53.0506 7.19469L52.4871 5.79385L53.8879 5.23036C54.7806 4.87129 55.2132 3.85649 54.8541 2.96383C54.495 2.07117 53.4802 1.63859 52.5876 1.99766V1.99766Z" fill="#31BEBE"/>
<path d="M47.8235 36.2143C47.1904 36.4689 46.439 36.3363 45.9306 35.8197C45.2557 35.1338 45.2647 34.0306 45.9506 33.3559L54.5614 24.8845C55.2471 24.2095 56.3504 24.2187 57.0251 24.9046C57.7 25.5904 57.691 26.6936 57.0051 27.3683L48.3943 35.8397C48.2251 36.0061 48.0306 36.131 47.8235 36.2143V36.2143Z" fill="#FABE2C"/>
<path d="M41.9583 36.5704C41.8344 36.6203 41.7028 36.6565 41.5647 36.6772C40.6131 36.8197 39.7263 36.1639 39.5837 35.2123L36.612 15.3754C36.4695 14.4238 37.1248 13.5372 38.0769 13.3943C39.0285 13.2518 39.9153 13.9076 40.0579 14.8592L43.0296 34.6962C43.1515 35.5097 42.6897 36.2763 41.9583 36.5704V36.5704Z" fill="#FABE2C"/>
<path d="M35.0584 39.3456C34.2669 39.664 33.3415 39.3605 32.9019 38.6005L26.3231 27.2252C25.8415 26.3923 26.1261 25.3266 26.9592 24.8448C27.7908 24.3632 28.8578 24.6478 29.3397 25.4808L35.9184 36.856C36.4001 37.689 36.1154 38.7547 35.2824 39.2365C35.2094 39.2787 35.1345 39.315 35.0584 39.3456V39.3456Z" fill="#FED843"/>
<path d="M28.8575 43.8428C28.4438 44.0092 27.9667 44.0178 27.5242 43.8291L13.0184 37.6455C12.1333 37.2683 11.7216 36.2449 12.0989 35.3597C12.4762 34.4747 13.4996 34.063 14.3847 34.4402L28.8905 40.6237C29.7757 41.0009 30.1874 42.0244 29.81 42.9096C29.6213 43.3522 29.2712 43.6764 28.8575 43.8428Z" fill="#FED843"/>
<path d="M13.8558 48.8759C14.7485 48.5168 15.1811 47.502 14.822 46.6093C14.4629 45.7166 13.4482 45.2841 12.5555 45.6431C11.6628 46.0022 11.2302 47.017 11.5893 47.9097C11.9484 48.8024 12.9631 49.235 13.8558 48.8759Z" fill="#5ED8D3"/>
<path d="M29.8395 16.4062C30.7322 16.0471 31.1648 15.0323 30.8057 14.1396C30.4466 13.2469 29.4318 12.8143 28.5391 13.1734C27.6464 13.5325 27.2138 14.5473 27.5729 15.44C27.932 16.3327 28.9468 16.7653 29.8395 16.4062Z" fill="#FED843"/>
<path d="M48.3088 19.9937C49.2015 19.6346 49.6341 18.6198 49.275 17.7271C48.9159 16.8344 47.9012 16.4019 47.0085 16.7609C46.1158 17.12 45.6832 18.1348 46.0423 19.0275C46.4014 19.9202 47.4161 20.3528 48.3088 19.9937Z" fill="#AD77E3"/>
<path d="M30.8056 14.1396C30.4465 13.2469 29.4317 12.8144 28.5391 13.1735L29.8394 16.4062C30.7321 16.0471 31.1647 15.0323 30.8056 14.1396Z" fill="#FABE2C"/>
<path d="M8.11974 27.1461C5.32712 28.2695 2.14128 26.9114 1.01794 24.1188C-0.105395 21.3261 1.25266 18.1403 4.04529 17.017C6.83791 15.8936 10.0238 17.2517 11.1471 20.0443C12.2704 22.8369 10.9124 26.0228 8.11974 27.1461V27.1461Z" fill="#FF6666"/>
</svg>
