<svg width="30" height="31" viewBox="0 0 30 31" fill="none" xmlns="http://www.w3.org/2000/svg">
<path d="M21.8106 20.723L21.2855 21.3225L21.8509 21.884L29.143 29.125C29.1469 29.1289 29.1519 29.1362 29.1519 29.1507C29.1519 29.1653 29.1469 29.1726 29.143 29.1764L29.1373 29.1821L29.1318 29.1878C29.1311 29.1885 29.13 29.1896 29.1264 29.1911C29.1218 29.1929 29.1153 29.1944 29.1087 29.1944C29.1089 29.1944 29.109 29.1944 29.109 29.1943C29.109 29.1943 29.1041 29.194 29.0962 29.1907C29.0876 29.1872 29.08 29.182 29.0744 29.1764L21.7823 21.9354L21.2247 21.3817L20.63 21.8953C18.5295 23.7096 15.7905 24.8074 12.7947 24.8074C6.20498 24.8074 0.848557 19.4799 0.848557 12.9508C0.848557 6.42137 6.19862 1.09416 12.7947 1.09416C19.3846 1.09416 24.7408 6.41534 24.7408 12.9508C24.7408 15.9207 23.6372 18.6378 21.8106 20.723ZM12.788 1.18138C6.26424 1.18138 0.941685 6.45091 0.941685 12.9508C0.941685 19.45 6.26357 24.7268 12.788 24.7268C19.3198 24.7268 24.6343 19.4427 24.6343 12.9508C24.6343 6.45818 19.3191 1.18138 12.788 1.18138Z" fill="white" stroke="white" stroke-width="1.69663"/>
</svg>
