<svg width="53" height="76" viewBox="0 0 53 76" fill="none" xmlns="http://www.w3.org/2000/svg">
<path d="M42.3134 19.7356C41.7968 18.8804 40.7728 18.4739 39.8103 18.7424C38.8472 19.0108 38.1815 19.8875 38.1815 20.8872C38.1815 23.6049 35.9706 25.8152 33.2535 25.8152C30.5358 25.8152 28.3255 23.6049 28.3255 20.8872V2.22635C28.3255 1.32587 27.7828 0.5141 26.9507 0.169098C26.1187 -0.175324 25.1608 0.0154418 24.5241 0.6521C24.2748 0.902009 18.3367 6.87373 12.3215 15.8971C8.77464 21.2177 5.94389 26.4953 3.90867 31.5834C1.33072 38.0288 0.0231934 44.2 0.0231934 49.9241C0.0231934 64.3023 11.7208 75.9999 26.0984 75.9999C40.4765 75.9999 52.1741 64.3023 52.1741 49.9241C52.1741 40.721 48.8563 30.564 42.3134 19.7356ZM26.0984 71.5468C14.1764 71.5468 4.47633 61.8467 4.47633 49.9241C4.47633 38.1883 10.731 26.3254 15.9785 18.4397C18.8226 14.1657 21.6887 10.5638 23.8718 8.00209V20.8872C23.8718 26.0599 28.0802 30.2683 33.2529 30.2683C36.4154 30.2683 39.2177 28.6958 40.9178 26.2912C45.4347 34.7968 47.721 42.7301 47.721 49.9241C47.721 61.8467 38.0215 71.5468 26.0984 71.5468Z" fill="black"/>
<path d="M38.7299 37.5797H29.1904C27.9606 37.5797 26.9639 38.5764 26.9639 39.8057C26.9633 41.0355 27.9606 42.0328 29.1899 42.0328H33.3548L23.842 51.545L18.6711 46.3741C17.8019 45.5049 16.3917 45.5049 15.5226 46.3741L10.4629 51.4331C9.59318 52.3029 9.59318 53.7125 10.4624 54.5822C11.3321 55.452 12.7417 55.4514 13.6114 54.5822L17.0968 51.0974L22.2672 56.2684C22.6847 56.6858 23.2512 56.9207 23.842 56.9207C24.4323 56.9207 24.9988 56.6858 25.4163 56.2684L36.5033 45.1819V49.3457C36.5033 50.575 37.5001 51.5723 38.7299 51.5723C39.9597 51.5723 40.9564 50.575 40.9564 49.3457V39.8063C40.9564 38.5764 39.9597 37.5797 38.7299 37.5797Z" fill="black"/>
</svg>

